G04 Layer_Physical_Order=1*
G04 Layer_Color=11767835*
%FSLAX25Y25*%
%MOIN*%
G70*
G01*
G75*
%ADD10R,0.02756X0.03543*%
%ADD11R,0.07087X0.05906*%
%ADD12R,0.05906X0.07087*%
%ADD13R,0.03543X0.02756*%
%ADD14O,0.05906X0.11811*%
%ADD15C,0.00787*%
%ADD16C,0.12205*%
%ADD17C,0.01969*%
G36*
X170569Y175853D02*
X170952Y174592D01*
X171573Y173429D01*
X172410Y172410D01*
X173429Y171573D01*
X174592Y170952D01*
X175853Y170569D01*
X177165Y170440D01*
X177165Y26410D01*
X175853Y26281D01*
X174592Y25898D01*
X173429Y25277D01*
X172410Y24441D01*
X171573Y23421D01*
X170952Y22259D01*
X170569Y20997D01*
X170440Y19685D01*
X169940Y19685D01*
X26410Y19685D01*
X26410Y19685D01*
X26281Y20997D01*
X25898Y22259D01*
X25277Y23421D01*
X24441Y24441D01*
X23421Y25277D01*
X22259Y25898D01*
X20997Y26281D01*
X19685Y26410D01*
X19685Y26410D01*
X19685Y170440D01*
X19685Y170440D01*
X20997Y170569D01*
X22259Y170952D01*
X23421Y171573D01*
X24441Y172410D01*
X25277Y173429D01*
X25898Y174592D01*
X26281Y175853D01*
X26410Y177165D01*
X170440Y177165D01*
X170569Y175853D01*
D02*
G37*
%LPC*%
G36*
X113886Y76575D02*
Y72941D01*
X116929D01*
Y76575D01*
X113886D01*
D02*
G37*
G36*
X82965D02*
X79921D01*
Y72941D01*
X82965D01*
Y76575D01*
D02*
G37*
G36*
Y71941D02*
X79921D01*
Y68307D01*
X82965D01*
Y71941D01*
D02*
G37*
G36*
X116929Y71941D02*
X113886D01*
Y68307D01*
X116929D01*
Y71941D01*
D02*
G37*
G36*
X71941Y82965D02*
X68307D01*
Y79921D01*
X71941D01*
Y82965D01*
D02*
G37*
G36*
X76575D02*
X72941D01*
Y79921D01*
X76575D01*
Y82965D01*
D02*
G37*
G36*
X87402Y76575D02*
X87205D01*
X87008D01*
X86902Y76575D01*
X83965D01*
Y72441D01*
Y68307D01*
X86902D01*
X87008Y68307D01*
X87205D01*
X87402D01*
X87508Y68307D01*
X90445D01*
Y72441D01*
Y76575D01*
X87508D01*
X87402Y76575D01*
D02*
G37*
G36*
X109843D02*
X109646D01*
X109449D01*
X109343Y76575D01*
X102469D01*
X102362Y76575D01*
X102165D01*
X101969D01*
X101862Y76575D01*
X94988D01*
X94882Y76575D01*
X94685D01*
X94488D01*
X94382Y76575D01*
X91445D01*
Y72441D01*
Y68307D01*
X94382D01*
X94488Y68307D01*
X94685D01*
X94882D01*
X94988Y68307D01*
X97422D01*
Y66184D01*
X97290Y66096D01*
X96942Y65575D01*
X96820Y64961D01*
X96942Y64346D01*
X97290Y63825D01*
X97422Y63737D01*
Y61417D01*
X95079D01*
Y56693D01*
X99016D01*
Y59604D01*
X99135Y59724D01*
X99352Y60049D01*
X99429Y60433D01*
Y63737D01*
X99561Y63825D01*
X99909Y64346D01*
X100031Y64961D01*
X99909Y65575D01*
X99561Y66096D01*
X99429Y66184D01*
Y67953D01*
X99782Y68307D01*
X101862D01*
X101969Y68307D01*
X102165D01*
X102362D01*
X102469Y68307D01*
X104902D01*
Y66184D01*
X104770Y66096D01*
X104422Y65575D01*
X104300Y64961D01*
X104422Y64346D01*
X104770Y63825D01*
X104902Y63737D01*
Y60827D01*
X104978Y60443D01*
X105196Y60117D01*
X105709Y59604D01*
Y56693D01*
X109646D01*
Y61417D01*
X106909D01*
Y63737D01*
X107041Y63825D01*
X107389Y64346D01*
X107511Y64961D01*
X107389Y65575D01*
X107041Y66096D01*
X106909Y66184D01*
Y67953D01*
X107263Y68307D01*
X109343D01*
X109449Y68307D01*
X109646D01*
X109843D01*
X109949Y68307D01*
X112886D01*
Y72441D01*
Y76575D01*
X109949D01*
X109843Y76575D01*
D02*
G37*
G36*
X112295Y58555D02*
X110827D01*
Y56693D01*
X112295D01*
Y58555D01*
D02*
G37*
G36*
X114764D02*
X113295D01*
Y56693D01*
X114764D01*
Y58555D01*
D02*
G37*
G36*
X91429Y58555D02*
X89961D01*
Y56693D01*
X91429D01*
Y58555D01*
D02*
G37*
G36*
X93898D02*
X92429D01*
Y56693D01*
X93898D01*
Y58555D01*
D02*
G37*
G36*
X112295Y61417D02*
X110827D01*
Y59555D01*
X112295D01*
Y61417D01*
D02*
G37*
G36*
X114764D02*
X113295D01*
Y59555D01*
X114764D01*
Y61417D01*
D02*
G37*
G36*
X91429D02*
X89961D01*
Y59555D01*
X91429D01*
Y61417D01*
D02*
G37*
G36*
X93898D02*
X92429D01*
Y59555D01*
X93898D01*
Y61417D01*
D02*
G37*
G36*
X76575Y116929D02*
X72941D01*
Y113886D01*
X76575D01*
Y116929D01*
D02*
G37*
G36*
X82965Y123909D02*
X79921D01*
Y120276D01*
X82965D01*
Y123909D01*
D02*
G37*
G36*
X128543Y116929D02*
X124909D01*
Y113886D01*
X128543D01*
Y116929D01*
D02*
G37*
G36*
X71941D02*
X68307D01*
Y113886D01*
X71941D01*
Y116929D01*
D02*
G37*
G36*
X113886Y128543D02*
Y124909D01*
X116929D01*
Y128543D01*
X113886D01*
D02*
G37*
G36*
X105905Y133495D02*
X105291Y133373D01*
X104770Y133025D01*
X104422Y132504D01*
X104300Y131890D01*
X104422Y131275D01*
X104770Y130754D01*
X104902Y130666D01*
Y128897D01*
X104548Y128543D01*
X102469D01*
X102362Y128543D01*
X102165D01*
X101969D01*
X101862Y128543D01*
X99429D01*
Y130666D01*
X99561Y130754D01*
X99909Y131275D01*
X100031Y131890D01*
X99909Y132504D01*
X99561Y133025D01*
X99040Y133373D01*
X98425Y133495D01*
X97811Y133373D01*
X97290Y133025D01*
X96942Y132504D01*
X96820Y131890D01*
X96942Y131275D01*
X97290Y130754D01*
X97422Y130666D01*
Y128897D01*
X97068Y128543D01*
X94988D01*
X94882Y128543D01*
X94685D01*
X94488D01*
X94382Y128543D01*
X91948D01*
Y130666D01*
X92080Y130754D01*
X92428Y131275D01*
X92550Y131890D01*
X92428Y132504D01*
X92080Y133025D01*
X91559Y133373D01*
X90945Y133495D01*
X90330Y133373D01*
X89810Y133025D01*
X89461Y132504D01*
X89339Y131890D01*
X89461Y131275D01*
X89810Y130754D01*
X89941Y130666D01*
Y128897D01*
X89588Y128543D01*
X87508D01*
X87402Y128543D01*
X87205D01*
X87008D01*
X86902Y128543D01*
X83965D01*
Y124409D01*
Y120276D01*
X86902D01*
X87008Y120276D01*
X87205D01*
X87402D01*
X87508Y120276D01*
X94382D01*
X94488Y120276D01*
X94685D01*
X94882D01*
X94988Y120276D01*
X101862D01*
X101969Y120276D01*
X102165D01*
X102362D01*
X102469Y120276D01*
X109343D01*
X109449Y120276D01*
X109646D01*
X109843D01*
X109949Y120276D01*
X112886D01*
Y124409D01*
Y128543D01*
X109949D01*
X109843Y128543D01*
X109646D01*
X109449D01*
X109343Y128543D01*
X106909D01*
Y130666D01*
X107041Y130754D01*
X107389Y131275D01*
X107511Y131890D01*
X107389Y132504D01*
X107041Y133025D01*
X106520Y133373D01*
X105905Y133495D01*
D02*
G37*
G36*
X116929Y123909D02*
X113886D01*
Y120276D01*
X116929D01*
Y123909D01*
D02*
G37*
G36*
X82965Y128543D02*
X79921D01*
Y124909D01*
X82965D01*
Y128543D01*
D02*
G37*
G36*
X123909Y116929D02*
X120276D01*
Y113886D01*
X123909D01*
Y116929D01*
D02*
G37*
G36*
X76575Y112886D02*
X72441D01*
X68307D01*
Y109949D01*
X68307Y109843D01*
Y109646D01*
Y109449D01*
X68307Y109343D01*
Y106909D01*
X66184D01*
X66096Y107041D01*
X65575Y107389D01*
X64961Y107511D01*
X64346Y107389D01*
X63825Y107041D01*
X63477Y106520D01*
X63355Y105905D01*
X63477Y105291D01*
X63825Y104770D01*
X64346Y104422D01*
X64961Y104300D01*
X65575Y104422D01*
X66096Y104770D01*
X66184Y104902D01*
X67953D01*
X68307Y104548D01*
Y102469D01*
X68307Y102362D01*
Y102165D01*
Y101969D01*
X68307Y101862D01*
Y99429D01*
X66184D01*
X66096Y99561D01*
X65575Y99909D01*
X64961Y100031D01*
X64346Y99909D01*
X63825Y99561D01*
X63477Y99040D01*
X63355Y98425D01*
X63477Y97811D01*
X63825Y97290D01*
X64346Y96942D01*
X64961Y96820D01*
X65575Y96942D01*
X66096Y97290D01*
X66184Y97422D01*
X67953D01*
X68307Y97068D01*
Y94988D01*
X68307Y94882D01*
Y94685D01*
Y94488D01*
X68307Y94382D01*
Y91948D01*
X66184D01*
X66096Y92080D01*
X65575Y92428D01*
X64961Y92550D01*
X64346Y92428D01*
X63825Y92080D01*
X63477Y91559D01*
X63355Y90945D01*
X63477Y90330D01*
X63825Y89810D01*
X64346Y89461D01*
X64961Y89339D01*
X65575Y89461D01*
X66096Y89810D01*
X66184Y89941D01*
X67953D01*
X68307Y89588D01*
Y87508D01*
X68307Y87402D01*
Y87205D01*
Y87008D01*
X68307Y86902D01*
Y83965D01*
X72441D01*
X76575D01*
Y86902D01*
X76575Y87008D01*
Y87205D01*
Y87402D01*
X76575Y87508D01*
Y94382D01*
X76575Y94488D01*
Y94685D01*
Y94882D01*
X76575Y94988D01*
Y101862D01*
X76575Y101969D01*
Y102165D01*
Y102362D01*
X76575Y102469D01*
Y109343D01*
X76575Y109449D01*
Y109646D01*
Y109843D01*
X76575Y109949D01*
Y112886D01*
D02*
G37*
G36*
X128543Y112886D02*
X120276D01*
Y109949D01*
X120276Y109843D01*
Y109646D01*
Y109449D01*
X120276Y109343D01*
Y106909D01*
X119334D01*
X119246Y107041D01*
X118725Y107389D01*
X118110Y107511D01*
X117496Y107389D01*
X116975Y107041D01*
X116627Y106520D01*
X116505Y105905D01*
X116627Y105291D01*
X116975Y104770D01*
X117496Y104422D01*
X118110Y104300D01*
X118725Y104422D01*
X119246Y104770D01*
X119334Y104902D01*
X119922D01*
X120276Y104548D01*
Y102469D01*
X120276Y102362D01*
Y102165D01*
Y101969D01*
X120276Y101862D01*
Y94988D01*
X120276Y94882D01*
Y94685D01*
Y94488D01*
X120276Y94382D01*
Y87508D01*
X120276Y87402D01*
Y87205D01*
Y87008D01*
X120276Y86902D01*
Y83965D01*
X128543D01*
Y86902D01*
X128543Y87008D01*
Y87205D01*
Y87402D01*
X128543Y87508D01*
Y89941D01*
X130666D01*
X130754Y89810D01*
X131275Y89461D01*
X131890Y89339D01*
X132504Y89461D01*
X133025Y89810D01*
X133373Y90330D01*
X133495Y90945D01*
X133373Y91559D01*
X133025Y92080D01*
X132504Y92428D01*
X131890Y92550D01*
X131275Y92428D01*
X130754Y92080D01*
X130666Y91948D01*
X128897D01*
X128543Y92302D01*
Y94382D01*
X128543Y94488D01*
Y94685D01*
Y94882D01*
X128543Y94988D01*
Y97422D01*
X130666D01*
X130754Y97290D01*
X131275Y96942D01*
X131890Y96820D01*
X132504Y96942D01*
X133025Y97290D01*
X133373Y97811D01*
X133495Y98425D01*
X133373Y99040D01*
X133025Y99561D01*
X132504Y99909D01*
X131890Y100031D01*
X131275Y99909D01*
X130754Y99561D01*
X130666Y99429D01*
X128897D01*
X128543Y99782D01*
Y101862D01*
X128543Y101969D01*
Y102165D01*
Y102362D01*
X128543Y102469D01*
Y104902D01*
X136024D01*
X136408Y104978D01*
X136733Y105196D01*
X137246Y105709D01*
X140157D01*
Y109646D01*
X135433D01*
Y106909D01*
X128897D01*
X128543Y107263D01*
Y109343D01*
X128543Y109449D01*
Y109646D01*
Y109843D01*
X128543Y109949D01*
Y112886D01*
D02*
G37*
G36*
X123909Y82965D02*
X120276D01*
Y79921D01*
X123909D01*
Y82965D01*
D02*
G37*
G36*
X128543D02*
X124909D01*
Y79921D01*
X128543D01*
Y82965D01*
D02*
G37*
G36*
X137295Y114764D02*
X135433D01*
Y113295D01*
X137295D01*
Y114764D01*
D02*
G37*
G36*
X140157D02*
X138295D01*
Y113295D01*
X140157D01*
Y114764D01*
D02*
G37*
G36*
X137295Y112295D02*
X135433D01*
Y110827D01*
X137295D01*
Y112295D01*
D02*
G37*
G36*
X140157D02*
X138295D01*
Y110827D01*
X140157D01*
Y112295D01*
D02*
G37*
%LPD*%
D10*
X97047Y59055D02*
D03*
X91929D02*
D03*
X107677D02*
D03*
X112795D02*
D03*
D11*
X124409Y83465D02*
D03*
Y90945D02*
D03*
Y98425D02*
D03*
Y105905D02*
D03*
Y113386D02*
D03*
X72441D02*
D03*
Y105905D02*
D03*
Y98425D02*
D03*
Y90945D02*
D03*
Y83465D02*
D03*
D12*
X113386Y124409D02*
D03*
X105905D02*
D03*
X98425D02*
D03*
X90945D02*
D03*
X83465D02*
D03*
Y72441D02*
D03*
X90945D02*
D03*
X98425D02*
D03*
X105905D02*
D03*
X113386D02*
D03*
D13*
X137795Y107677D02*
D03*
Y112795D02*
D03*
D14*
X148504Y8110D02*
D03*
X138504D02*
D03*
X108504D02*
D03*
X118504D02*
D03*
X98504D02*
D03*
X88504D02*
D03*
X78504D02*
D03*
X58346Y7953D02*
D03*
X68504Y8110D02*
D03*
X48504D02*
D03*
X128504D02*
D03*
D15*
X124409Y113386D02*
X125000Y112795D01*
X124409Y105905D02*
X136024D01*
X105905Y64961D02*
Y72441D01*
Y60827D02*
Y64961D01*
X136024Y105905D02*
X137795Y107677D01*
X105905Y60827D02*
X107677Y59055D01*
X97047D02*
X98425Y60433D01*
Y64961D01*
Y72441D01*
X90945Y124409D02*
Y131890D01*
X90945Y131890D02*
X90945Y131890D01*
X98425Y124409D02*
Y131890D01*
X105905Y124409D02*
Y131890D01*
X64961Y105905D02*
X72441D01*
X64961Y98425D02*
X72441D01*
X64961Y90945D02*
X72441D01*
X124409Y98425D02*
X131890D01*
X124409Y90945D02*
X131890D01*
X118110Y105905D02*
X124409D01*
X48504Y8110D02*
Y15669D01*
X48425Y15748D02*
X48504Y15669D01*
X58346Y7953D02*
Y15669D01*
X58268Y15748D02*
X58346Y15669D01*
X68504Y8110D02*
Y15748D01*
X78504Y8110D02*
Y15590D01*
X78347Y15748D02*
X78504Y15590D01*
X88504Y8110D02*
Y15669D01*
X88583Y15748D01*
X98504Y8110D02*
Y15669D01*
X98425Y15748D02*
X98504Y15669D01*
X108504Y8110D02*
Y15512D01*
X108268Y15748D02*
X108504Y15512D01*
X118504Y8110D02*
Y15748D01*
X138504Y8110D02*
Y15433D01*
X138189Y15748D02*
X138504Y15433D01*
X148504Y8110D02*
Y15669D01*
X148425Y15748D02*
X148504Y15669D01*
X128504Y8110D02*
Y70866D01*
X112795Y71850D02*
X113386Y72441D01*
X90945Y64567D02*
Y72441D01*
Y64567D02*
X91929Y63583D01*
Y59055D02*
Y63583D01*
X112795Y59055D02*
Y63583D01*
X113386Y64173D01*
Y72441D01*
X133268Y112795D02*
X137795D01*
X124409Y113386D02*
X132677D01*
X133268Y112795D01*
D16*
X19685Y19685D02*
D03*
X177165D02*
D03*
Y177165D02*
D03*
X19685D02*
D03*
D17*
X105905Y64961D02*
D03*
X98425D02*
D03*
X90945Y131890D02*
D03*
X98425D02*
D03*
X105905D02*
D03*
X64961Y105905D02*
D03*
Y98425D02*
D03*
Y90945D02*
D03*
X131890Y98425D02*
D03*
Y90945D02*
D03*
X118110Y105905D02*
D03*
X48425Y15748D02*
D03*
X58268D02*
D03*
X68504D02*
D03*
X78347D02*
D03*
X88583D02*
D03*
X98425D02*
D03*
X108268D02*
D03*
X118504D02*
D03*
X138189D02*
D03*
X148425D02*
D03*
M02*
