M48
;Layer_Color=6321
;FILE_FORMAT=2:5
INCH,LZ
;TYPE=PLATED
T1F00S00C0.01181
;TYPE=NON_PLATED
T2F00S00C0.12205
%
T01
X0048425Y0015748
X0058268
X0068504
X0078347
X0088583
X0098425
X0108268
X0118504
X0138189
X0148425
X0105905Y0064961
X0098425
X013189Y0090945
Y0098425
X011811Y0105905
X0105905Y013189
X0098425
X0090945
X0064961Y0105905
Y0098425
Y0090945
T02
X0177165Y0019685
X0019685
Y0177165
X0177165
M30
